<svg width="25" height="25" viewBox="0 0 25 25" fill="none" xmlns="http://www.w3.org/2000/svg">
<path d="M12.5 25C19.4036 25 25 19.4036 25 12.5C25 5.59644 19.4036 0 12.5 0C5.59644 0 0 5.59644 0 12.5C0 19.4036 5.59644 25 12.5 25Z" fill="url(#paint0_linear_70_10128)"/>
<path d="M17.9706 17.4807L13.7438 7.26161C13.5054 6.73326 13.151 6.47552 12.6839 6.47552H12.3101C11.843 6.47552 11.4886 6.73326 11.2502 7.26161L9.41066 11.7139H8.01891C7.60331 11.7171 7.26504 12.0522 7.26182 12.471V12.4807C7.26504 12.8963 7.60331 13.2345 8.01891 13.2378H8.76633L7.01053 17.4807C6.97831 17.5741 6.95898 17.6708 6.95898 17.7706C6.95898 18.009 7.03308 18.1959 7.16517 18.3409C7.29726 18.4858 7.48733 18.5567 7.72574 18.5567C7.8836 18.5535 8.03501 18.5052 8.16066 18.4117C8.29597 18.3183 8.3894 18.183 8.4635 18.0284L10.3965 13.2345H11.7367C12.1523 13.2313 12.4906 12.8963 12.4938 12.4775V12.4581C12.4906 12.0425 12.1523 11.7043 11.7367 11.701H11.0215L12.497 8.02514L16.5176 18.0251C16.5917 18.1798 16.6851 18.3151 16.8205 18.4085C16.9461 18.5019 17.1007 18.5503 17.2554 18.5535C17.4938 18.5535 17.6806 18.4826 17.8159 18.3376C17.9513 18.1927 18.0221 18.0058 18.0221 17.7674C18.0254 17.6708 18.0092 17.5709 17.9706 17.4807Z" fill="white"/>
<defs>
<linearGradient id="paint0_linear_70_10128" x1="21.8198" y1="4.65807" x2="3.21982" y2="20.3081" gradientUnits="userSpaceOnUse">
<stop stop-color="#B6509E"/>
<stop offset="1" stop-color="#2EBAC6"/>
</linearGradient>
</defs>
</svg>
