<svg width="25" height="25" viewBox="0 0 25 25" fill="none" xmlns="http://www.w3.org/2000/svg">
<g clipPath="url(#clip0_70_10134)">
<path d="M12.5 25C19.4037 25 25 19.4037 25 12.5C25 5.59625 19.4037 0 12.5 0C5.59625 0 0 5.59625 0 12.5C0 19.4037 5.59625 25 12.5 25Z" fill="#070A0E"/>
<path fill-rule="evenodd" clip-rule="evenodd" d="M7.22115 16.6912C6.8474 16.4625 6.61865 16.0562 6.61865 15.6187V13.1762C6.61865 12.8862 6.8549 12.6512 7.1449 12.6525C7.2374 12.6525 7.32865 12.6775 7.40865 12.7237L12.9199 15.9375C13.2424 16.125 13.4412 16.47 13.4412 16.8437V19.3737C13.4424 19.7212 13.1612 20.0037 12.8137 20.0037C12.6974 20.0037 12.5824 19.9712 12.4837 19.9112L7.22115 16.6912ZM15.4362 12.055C15.7587 12.2425 15.9562 12.5887 15.9574 12.9612V18.0962C15.9574 18.2475 15.8762 18.3875 15.7437 18.4612L14.5374 19.14C14.5224 19.1487 14.5062 19.155 14.4887 19.16V16.3087C14.4887 15.94 14.2949 15.5975 13.9774 15.4075L9.1374 12.5125V9.29372C9.1374 9.00372 9.37365 8.76872 9.66365 8.76997C9.75615 8.76997 9.8474 8.79497 9.9274 8.84122L15.4362 12.055ZM17.8487 8.26247C18.1724 8.44997 18.3712 8.79622 18.3712 9.16997V16.67C18.3699 16.8237 18.2849 16.965 18.1499 17.0387L17.0062 17.6562V12.435C17.0062 12.0662 16.8124 11.725 16.4974 11.535L11.5499 8.56747V5.51497C11.5499 5.42247 11.5749 5.33122 11.6199 5.25122C11.7662 5.00122 12.0874 4.91622 12.3374 5.06122L17.8487 8.26247Z" fill="#00D395"/>
</g>
<defs>
<clipPath id="clip0_70_10134">
<rect width="25" height="25" fill="white"/>
</clipPath>
</defs>
</svg>
