<svg width="25" height="25" viewBox="0 0 25 25" fill="none" xmlns="http://www.w3.org/2000/svg">
<path d="M12.5 25C19.4036 25 25 19.4036 25 12.5C25 5.59644 19.4036 0 12.5 0C5.59644 0 0 5.59644 0 12.5C0 19.4036 5.59644 25 12.5 25Z" fill="url(#paint0_linear_70_616)"/>
<path d="M7.63729 5.76801L20.4908 14.5459L17.3095 19.2427L4.45605 10.3953L7.63729 5.76801Z" fill="url(#paint1_linear_70_616)"/>
<path d="M20.4907 14.5458C19.3875 16.1365 15.6546 15.5152 12.1306 13.0249C8.53701 10.6041 6.60364 7.35861 7.63727 5.768C8.74053 4.17738 12.4734 4.79863 15.9974 7.28899C19.591 9.6401 21.5297 12.9552 20.4907 14.5458Z" fill="url(#paint2_linear_70_616)"/>
<path d="M17.3148 19.1785C16.2116 20.7691 12.4787 20.1478 8.9547 17.6575C5.43071 15.1671 3.42771 11.9912 4.53097 10.331C5.63422 8.74037 9.36708 9.36162 12.8911 11.852C16.4151 14.337 18.3484 17.5878 17.3148 19.1785Z" fill="url(#paint3_linear_70_616)"/>
<path d="M20.4903 14.5458L17.3091 19.2427C16.2059 20.8333 12.473 20.1425 8.949 17.7217C8.25813 17.2397 7.63688 16.7524 7.01562 16.2007C7.49763 16.1311 8.11888 15.8526 8.74549 15.1617C9.84875 13.9889 10.4057 13.7104 10.8877 13.78C11.3697 13.78 11.9267 14.262 12.8211 15.4402C13.7209 16.6131 14.9634 16.9612 15.7239 16.34C15.7935 16.2704 15.8631 16.2704 15.9327 16.2007C16.554 15.7187 16.7628 15.5099 17.9357 13.298C18.2142 12.7464 19.1782 11.8466 20.4903 12.259C20.8385 13.1641 20.8385 13.9246 20.4903 14.5458Z" fill="#0E0F23"/>
<path fill-rule="evenodd" clip-rule="evenodd" d="M20.0086 14.2727C19.0392 15.6544 15.6544 14.9636 12.4089 12.6821C9.09382 10.4006 7.15509 7.49785 8.12446 6.1161C9.09382 4.73435 12.4786 5.42523 15.7241 7.70672C18.9696 9.98821 20.9083 12.8856 20.0086 14.2727ZM16.9666 12.1947C16.4846 12.8856 14.8243 12.5428 13.1641 11.4342C11.5735 10.331 10.6095 8.8796 11.0915 8.18872C11.5735 7.49785 13.2337 7.84061 14.894 8.94922C16.4846 10.0525 17.4486 11.5038 16.9666 12.1947Z" fill="white"/>
<path d="M7.35857 7.35862C7.35857 7.289 7.28895 7.21938 7.21932 7.289C7.1497 7.35862 7.08008 7.35862 7.08008 7.42825C7.1497 7.63712 7.21932 7.77636 7.21932 7.91025C7.21932 7.97987 7.28895 8.0495 7.35857 7.97987C7.42819 7.97987 7.49782 7.91025 7.42819 7.84063C7.42819 7.70674 7.42819 7.56749 7.35857 7.35862Z" fill="white"/>
<path d="M7.70692 8.46724C7.70692 8.39761 7.63729 8.32799 7.56767 8.39761C7.49805 8.46724 7.49805 8.46724 7.49805 8.53686C8.25854 10.2667 9.84916 12.1305 11.9218 13.5122C11.9914 13.5818 12.061 13.5122 12.1307 13.5122C12.2003 13.4426 12.1307 13.373 12.1307 13.3034C9.98841 11.9216 8.46741 10.1221 7.70692 8.46724Z" fill="white"/>
<path d="M16.067 15.2367C15.9974 15.2367 15.9277 15.2367 15.9277 15.3063C15.9277 15.376 15.9277 15.4456 15.9974 15.4456C16.2062 15.5152 16.4794 15.5848 16.6882 15.6545C16.7579 15.6545 16.8275 15.6545 16.8275 15.5848C16.8275 15.5152 16.8275 15.4456 16.7579 15.4456C16.5543 15.376 16.2758 15.3063 16.067 15.2367Z" fill="white"/>
<path d="M17.3145 15.5152C17.2449 15.5152 17.1753 15.5848 17.1753 15.6544C17.1753 15.7241 17.2449 15.7937 17.3145 15.7937C17.8662 15.8633 18.4874 15.9329 18.9748 15.8633C19.0444 15.8633 19.114 15.7937 19.114 15.7241C19.114 15.6544 19.0444 15.5848 18.9748 15.5848C18.4178 15.6544 17.8662 15.5848 17.3145 15.5152Z" fill="white"/>
<defs>
<linearGradient id="paint0_linear_70_616" x1="21.049" y1="-1.67156" x2="4.99834" y2="24.9387" gradientUnits="userSpaceOnUse">
<stop stop-color="#CCCFFF"/>
<stop offset="1" stop-color="#FFBEDC"/>
</linearGradient>
<linearGradient id="paint1_linear_70_616" x1="10.1589" y1="4.52106" x2="12.7081" y2="13.2746" gradientUnits="userSpaceOnUse">
<stop stop-color="#03B8FF"/>
<stop offset="1" stop-color="#FA52A0"/>
</linearGradient>
<linearGradient id="paint2_linear_70_616" x1="12.2477" y1="3.91278" x2="14.797" y2="12.6664" gradientUnits="userSpaceOnUse">
<stop stop-color="#03B8FF"/>
<stop offset="1" stop-color="#FA52A0"/>
</linearGradient>
<linearGradient id="paint3_linear_70_616" x1="8.0951" y1="5.12209" x2="10.6443" y2="13.8757" gradientUnits="userSpaceOnUse">
<stop stop-color="#03B8FF"/>
<stop offset="1" stop-color="#FA52A0"/>
</linearGradient>
</defs>
</svg>
