<svg width="25" height="25" viewBox="0 0 25 25" fill="none" xmlns="http://www.w3.org/2000/svg">
<circle cx="12.5" cy="12.5" r="12.5" fill="#323743"/>
<g clipPath="url(#clip0_70_592)">
<path d="M10.1579 6.88639C9.96726 6.85844 9.95819 6.84912 10.049 6.8398C10.2214 6.81185 10.6209 6.84912 10.9023 6.91434C11.5559 7.07272 12.1459 7.48265 12.7723 8.20003L12.9357 8.39567L13.1717 8.35841C14.1793 8.19071 15.2142 8.32114 16.0766 8.73107C16.3126 8.84287 16.6848 9.06647 16.7302 9.12237C16.7483 9.141 16.7755 9.26212 16.7937 9.38323C16.8572 9.82111 16.83 10.1472 16.6938 10.3987C16.6212 10.5385 16.6212 10.5758 16.6666 10.6969C16.7029 10.79 16.8119 10.8553 16.9117 10.8553C17.1296 10.8553 17.3565 10.5012 17.4654 10.0074L17.5108 9.8118L17.5925 9.90496C18.0555 10.436 18.4186 11.172 18.4731 11.6937L18.4912 11.8335L18.4095 11.7124C18.2734 11.4981 18.1463 11.3583 17.9738 11.2372C17.6652 11.023 17.3384 10.9577 16.476 10.9112C15.6953 10.8646 15.2505 10.7994 14.8148 10.6503C14.0704 10.3987 13.6891 10.0727 12.8086 8.87082C12.4182 8.33977 12.1731 8.05096 11.928 7.80873C11.3925 7.27768 10.8569 6.99818 10.1579 6.88639Z" fill="white"/>
<path d="M16.9208 8.06959C16.939 7.71556 16.9844 7.48265 17.0842 7.26837C17.1206 7.18452 17.1569 7.10999 17.1659 7.10999C17.175 7.10999 17.1569 7.1752 17.1296 7.24973C17.057 7.4547 17.0479 7.74351 17.0933 8.06959C17.1569 8.48884 17.1841 8.54474 17.6198 9.00125C17.8195 9.21554 18.0556 9.48572 18.1463 9.59752L18.3007 9.80248L18.1463 9.65342C17.9557 9.46708 17.52 9.11305 17.4201 9.06647C17.3566 9.0292 17.3475 9.0292 17.3021 9.07579C17.2658 9.11305 17.2567 9.16895 17.2567 9.43913C17.2476 9.85838 17.1932 10.1192 17.057 10.3894C16.9844 10.5292 16.9753 10.5012 17.0389 10.3428C17.0842 10.2217 17.0933 10.1658 17.0933 9.76521C17.0933 8.95467 17.0025 8.75902 16.4488 8.43294C16.3126 8.34909 16.0766 8.22798 15.9405 8.16276C15.7952 8.09754 15.6863 8.04164 15.6954 8.04164C15.7135 8.02301 16.2491 8.18139 16.4579 8.27456C16.7756 8.40499 16.8301 8.41431 16.8664 8.40499C16.8936 8.37704 16.9118 8.30251 16.9208 8.06959Z" fill="white"/>
<path d="M10.5301 9.45778C10.1489 8.91742 9.90377 8.07892 9.95824 7.45471L9.97639 7.25906L10.0672 7.2777C10.2306 7.30565 10.512 7.41745 10.6481 7.5013C11.0113 7.72489 11.1747 8.03234 11.329 8.7963C11.3744 9.0199 11.4379 9.28076 11.4651 9.36461C11.5105 9.50436 11.683 9.83044 11.8282 10.0354C11.9281 10.1845 11.8646 10.259 11.6376 10.2404C11.2927 10.2031 10.8297 9.87703 10.5301 9.45778Z" fill="white"/>
<path d="M16.4577 13.5105C14.6603 12.7652 14.0249 12.1223 14.0249 11.0323C14.0249 10.8739 14.034 10.7435 14.034 10.7435C14.0431 10.7435 14.1066 10.7994 14.1883 10.8646C14.5514 11.1627 14.9599 11.2931 16.0946 11.4608C16.7573 11.5633 17.1386 11.6379 17.4835 11.759C18.5819 12.1316 19.2627 12.8956 19.4261 13.9297C19.4715 14.2279 19.4443 14.7962 19.3717 15.0943C19.3081 15.3272 19.1266 15.7558 19.0812 15.7651C19.0721 15.7651 19.054 15.7185 19.054 15.644C19.0358 15.2527 18.8452 14.88 18.5274 14.5912C18.1462 14.2558 17.656 14.0043 16.4577 13.5105Z" fill="white"/>
<path d="M15.187 13.8179C15.1688 13.6782 15.1234 13.5012 15.0962 13.4266L15.0508 13.2869L15.1325 13.3894C15.2505 13.5291 15.3413 13.6968 15.423 13.9297C15.4865 14.1068 15.4865 14.1627 15.4865 14.4515C15.4865 14.731 15.4775 14.7962 15.423 14.9546C15.3322 15.2061 15.2233 15.3831 15.0417 15.5788C14.7149 15.9235 14.2883 16.1098 13.6801 16.1937C13.5712 16.203 13.2625 16.2309 12.9902 16.2496C12.3094 16.2868 11.8555 16.3614 11.447 16.5104C11.3925 16.5291 11.338 16.5477 11.329 16.5384C11.3108 16.5198 11.5922 16.3521 11.8192 16.2403C12.1369 16.0819 12.4637 15.998 13.1808 15.8676C13.5348 15.8117 13.898 15.7372 13.9887 15.6999C14.8874 15.4111 15.3322 14.6937 15.187 13.8179Z" fill="white"/>
<path d="M16.0128 15.3179C15.7768 14.7869 15.7223 14.2838 15.8494 13.8086C15.8676 13.762 15.8857 13.7155 15.9039 13.7155C15.9221 13.7155 15.9765 13.7434 16.031 13.7807C16.1399 13.8552 16.3669 13.9856 16.9478 14.3117C17.6831 14.7216 18.1007 15.0384 18.3912 15.4018C18.6454 15.7185 18.7997 16.0819 18.8723 16.5291C18.9177 16.7806 18.8905 17.3862 18.8269 17.6377C18.6272 18.4296 18.1733 19.0632 17.5107 19.4265C17.4108 19.4824 17.3291 19.5197 17.32 19.5197C17.3109 19.5197 17.3473 19.4265 17.4017 19.3147C17.6196 18.8396 17.6468 18.3831 17.4834 17.8707C17.3836 17.5539 17.1748 17.1719 16.7572 16.5291C16.2579 15.7837 16.1399 15.5881 16.0128 15.3179Z" fill="white"/>
<path d="M9.2502 18.1688C9.92195 17.5911 10.748 17.1812 11.5106 17.0508C11.8373 16.9949 12.382 17.0135 12.6816 17.0974C13.1627 17.2278 13.5984 17.5073 13.8254 17.852C14.0432 18.1874 14.1431 18.4762 14.2429 19.1191C14.2793 19.3706 14.3246 19.6315 14.3337 19.6874C14.4063 20.0228 14.5516 20.2836 14.7331 20.4234C15.0145 20.6377 15.5047 20.647 15.9859 20.4607C16.0676 20.4327 16.1402 20.4048 16.1402 20.4141C16.1583 20.4327 15.9132 20.6004 15.7498 20.6843C15.5229 20.8054 15.3413 20.8426 15.0962 20.8426C14.6605 20.8426 14.2883 20.6097 13.9888 20.1439C13.9252 20.0507 13.7981 19.7805 13.6892 19.529C13.3715 18.7744 13.2081 18.5508 12.8359 18.2992C12.5091 18.0849 12.0915 18.0383 11.7738 18.1967C11.3562 18.4017 11.2473 18.9514 11.5378 19.2868C11.6558 19.4265 11.8737 19.5383 12.0552 19.5663C12.3911 19.6128 12.6816 19.3427 12.6816 18.998C12.6816 18.7744 12.5999 18.6439 12.382 18.5414C12.0915 18.411 11.7738 18.5601 11.7829 18.8489C11.7829 18.97 11.8373 19.0445 11.9554 19.1004C12.028 19.1377 12.028 19.1377 11.9735 19.1284C11.7103 19.0725 11.6467 18.7371 11.8555 18.5228C12.1097 18.2619 12.6453 18.3737 12.8268 18.7371C12.8994 18.8862 12.9085 19.1843 12.845 19.3706C12.6907 19.7805 12.2549 19.9948 11.8101 19.8737C11.5106 19.7899 11.3835 19.706 11.0204 19.324C10.3849 18.6532 10.1398 18.5228 9.23205 18.3831L9.05957 18.3551L9.2502 18.1688Z" fill="white"/>
<path fill-rule="evenodd" clip-rule="evenodd" d="M4.47506 3.17838C6.59017 5.81498 9.84906 9.91428 10.0125 10.1379C10.1486 10.3242 10.0942 10.5012 9.86722 10.6317C9.74013 10.7062 9.47688 10.7807 9.34979 10.7807C9.20455 10.7807 9.03207 10.7062 8.91406 10.5851C8.83236 10.5012 8.47833 9.97018 7.67949 8.69381C7.07129 7.71557 6.55386 6.90502 6.54478 6.89571C6.50847 6.87707 6.50847 6.87707 7.61595 8.90809C8.31493 10.1845 8.54187 10.641 8.54187 10.6969C8.54187 10.818 8.50556 10.8832 8.36032 11.0509C8.11522 11.3304 8.00629 11.6472 7.92459 12.3086C7.83381 13.0447 7.58871 13.5664 6.88973 14.4515C6.48123 14.9732 6.41769 15.0664 6.31784 15.2806C6.19075 15.5415 6.15444 15.6906 6.13628 16.026C6.11813 16.38 6.15444 16.6036 6.25429 16.939C6.34507 17.2371 6.44492 17.4328 6.69002 17.8148C6.89881 18.1501 7.0259 18.4017 7.0259 18.4949C7.0259 18.5694 7.04405 18.5694 7.37085 18.4949C8.15153 18.3085 8.79605 17.9918 9.15008 17.6005C9.36795 17.3582 9.42241 17.2278 9.42241 16.8924C9.42241 16.6781 9.41333 16.6315 9.35887 16.5011C9.26809 16.2961 9.09561 16.1284 8.72343 15.8676C8.23323 15.5229 8.02444 15.2434 7.96998 14.8707C7.92459 14.5539 7.97906 14.3397 8.25139 13.7527C8.5328 13.1471 8.60542 12.8956 8.65081 12.2807C8.67804 11.8894 8.72343 11.731 8.83236 11.6099C8.95037 11.4795 9.05023 11.4329 9.33163 11.3956C9.7946 11.3304 10.0942 11.2093 10.3302 10.9764C10.539 10.7807 10.6297 10.5851 10.6388 10.2963L10.6479 10.082L10.5299 9.95155C10.1032 9.44845 4.19365 2.77777 4.16642 2.77777C4.15734 2.77777 4.30259 2.95479 4.47506 3.17838ZM7.26192 16.4266C7.36177 16.2496 7.30731 16.026 7.14391 15.9142C6.98959 15.8117 6.75357 15.8583 6.75357 15.998C6.75357 16.0353 6.77172 16.0725 6.82619 16.0912C6.90789 16.1378 6.91696 16.1843 6.85342 16.2868C6.78988 16.3893 6.78988 16.4825 6.87158 16.5477C6.99866 16.6502 7.17114 16.5943 7.26192 16.4266Z" fill="white"/>
<path fill-rule="evenodd" clip-rule="evenodd" d="M10.9384 11.526C10.7205 11.5913 10.5117 11.8335 10.4482 12.0757C10.4119 12.2248 10.43 12.495 10.4936 12.5788C10.5934 12.7092 10.6842 12.7465 10.9384 12.7465C11.4377 12.7465 11.8643 12.5229 11.9097 12.2527C11.9551 12.0291 11.7645 11.7217 11.5012 11.5819C11.365 11.5074 11.0836 11.4795 10.9384 11.526ZM11.5194 11.9919C11.592 11.8801 11.5648 11.759 11.4286 11.6751C11.1835 11.5167 10.8113 11.6472 10.8113 11.8894C10.8113 12.0105 11.0019 12.1409 11.1835 12.1409C11.3015 12.1409 11.4649 12.0664 11.5194 11.9919Z" fill="white"/>
</g>
<defs>
<clipPath id="clip0_70_592">
<rect width="15.2778" height="18.0556" fill="white" transform="translate(4.1665 2.77777)"/>
</clipPath>
</defs>
</svg>
